<svg width="130" height="130" viewBox="0 0 130 130" fill="none" xmlns="http://www.w3.org/2000/svg">
<g opacity="0.1" filter="url(#filter0_d_8_346)">
<circle cx="65" cy="45" r="35" fill="url(#paint0_linear_8_346)"/>
</g>
<g filter="url(#filter1_d_8_346)">
<circle cx="65" cy="45" r="30" fill="url(#paint1_linear_8_346)"/>
</g>
<path fill-rule="evenodd" clip-rule="evenodd" d="M65 30C64.2858 30 63.7069 30.5789 63.7069 31.2931V43.7069H51.2931C50.5789 43.7069 50 44.2858 50 45C50 45.7142 50.5789 46.2931 51.2931 46.2931H63.7069V58.7069C63.7069 59.4211 64.2858 60 65 60C65.7142 60 66.2931 59.4211 66.2931 58.7069V46.2931H78.7069C79.4211 46.2931 80 45.7142 80 45C80 44.2858 79.4211 43.7069 78.7069 43.7069H66.2931V31.2931C66.2931 30.5789 65.7142 30 65 30Z" fill="white"/>
<defs>
<filter id="filter0_d_8_346" x="0" y="0" width="130" height="130" filterUnits="userSpaceOnUse" color-interpolation-filters="sRGB">
<feFlood flood-opacity="0" result="BackgroundImageFix"/>
<feColorMatrix in="SourceAlpha" type="matrix" values="0 0 0 0 0 0 0 0 0 0 0 0 0 0 0 0 0 0 127 0" result="hardAlpha"/>
<feOffset dy="20"/>
<feGaussianBlur stdDeviation="15"/>
<feColorMatrix type="matrix" values="0 0 0 0 0 0 0 0 0 0.225581 0 0 0 0 0.291376 0 0 0 0.2 0"/>
<feBlend mode="normal" in2="BackgroundImageFix" result="effect1_dropShadow_8_346"/>
<feBlend mode="normal" in="SourceGraphic" in2="effect1_dropShadow_8_346" result="shape"/>
</filter>
<filter id="filter1_d_8_346" x="5" y="5" width="120" height="120" filterUnits="userSpaceOnUse" color-interpolation-filters="sRGB">
<feFlood flood-opacity="0" result="BackgroundImageFix"/>
<feColorMatrix in="SourceAlpha" type="matrix" values="0 0 0 0 0 0 0 0 0 0 0 0 0 0 0 0 0 0 127 0" result="hardAlpha"/>
<feOffset dy="20"/>
<feGaussianBlur stdDeviation="15"/>
<feColorMatrix type="matrix" values="0 0 0 0 0 0 0 0 0 0.225581 0 0 0 0 0.291376 0 0 0 0.2 0"/>
<feBlend mode="normal" in2="BackgroundImageFix" result="effect1_dropShadow_8_346"/>
<feBlend mode="normal" in="SourceGraphic" in2="effect1_dropShadow_8_346" result="shape"/>
</filter>
<linearGradient id="paint0_linear_8_346" x1="30" y1="10" x2="30" y2="80" gradientUnits="userSpaceOnUse">
<stop stop-color="#00607C"/>
<stop offset="1" stop-color="#00607C"/>
</linearGradient>
<linearGradient id="paint1_linear_8_346" x1="35" y1="15" x2="35" y2="75" gradientUnits="userSpaceOnUse">
<stop stop-color="#00607C"/>
<stop offset="1" stop-color="#00607C"/>
</linearGradient>
</defs>
</svg>
