<svg width="20" height="20" viewBox="0 0 20 20" fill="none" xmlns="http://www.w3.org/2000/svg">
<path fill-rule="evenodd" clip-rule="evenodd" d="M10 20C15.5228 20 20 15.5228 20 10C20 4.47715 15.5228 0 10 0C4.47715 0 0 4.47715 0 10C0 15.5228 4.47715 20 10 20ZM6.73299 9.94522L5.1818 11.4957H5.16003C5.05753 11.5984 5 11.7376 5 11.8829C5 12.0281 5.05753 12.1674 5.16003 12.2701C5.20437 12.3145 5.67917 12.7913 6.208 13.3223C6.90213 14.0194 7.68934 14.8099 7.71829 14.8387C7.76891 14.8898 7.82911 14.9304 7.89546 14.9581C7.96176 14.9857 8.0329 15 8.10475 15C8.17665 15 8.24779 14.9857 8.31409 14.9581C8.38044 14.9304 8.44064 14.8898 8.49121 14.8387L10.037 13.2828C10.2877 13.3344 10.5431 13.36 10.799 13.3591C11.5031 13.3635 12.1969 13.1895 12.8158 12.853C13.4347 12.5167 13.9587 12.0289 14.3389 11.4352C14.7192 10.8414 14.9433 10.1609 14.9906 9.45705C15.0378 8.75317 14.9066 8.04876 14.6092 7.40933C14.5717 7.3296 14.5154 7.26017 14.4453 7.20698C14.3751 7.1538 14.2932 7.11844 14.2064 7.10393C14.1206 7.08825 14.0323 7.09343 13.949 7.11905C13.8656 7.14468 13.7896 7.18999 13.7274 7.25117L11.3651 9.62346L10.3853 8.64182L12.7531 6.27499C12.8151 6.21317 12.8614 6.13727 12.8879 6.05372C12.9144 5.97018 12.9205 5.88146 12.9055 5.79508C12.8905 5.7076 12.8544 5.62511 12.8003 5.55478C12.7462 5.48445 12.6758 5.42841 12.5952 5.39152C11.9591 5.0945 11.2585 4.96293 10.5582 5.00898C9.85794 5.05503 9.18054 5.27722 8.5886 5.65501C7.99672 6.03279 7.50939 6.55398 7.17176 7.1704C6.83412 7.78682 6.65701 8.47858 6.65679 9.18172C6.65597 9.43817 6.6815 9.69402 6.73299 9.94522Z" fill="#00607C"/>
</svg>
