<svg width="20" height="20" viewBox="0 0 20 20" fill="none" xmlns="http://www.w3.org/2000/svg">
<path fill-rule="evenodd" clip-rule="evenodd" d="M10 20C15.5228 20 20 15.5228 20 10C20 4.47715 15.5228 0 10 0C4.47715 0 0 4.47715 0 10C0 15.5228 4.47715 20 10 20ZM15 10.9425C14.701 13.5366 13.2661 15.051 10.5007 15.051C7.79522 15.051 6.25561 13.3716 5.92676 11.0025H5V9.93785H5.86697V9.15813H5V8.09352H5.9417C6.3154 5.67939 8.03438 4 10.5904 4C13.1614 4 14.701 5.31952 14.9253 7.8686H12.1001C11.9656 6.84897 11.4574 6.30917 10.5605 6.30917C9.58894 6.30917 9.08072 6.99892 8.90135 8.09352H11.2182L11.0389 9.15813H8.84155V9.93785H10.9043L10.725 11.0025H8.90135C9.06577 12.0671 9.57399 12.6819 10.5755 12.6819C11.577 12.6819 12.0553 12.0971 12.1898 10.9425H15Z" fill="#00607C"/>
</svg>
