<svg width="20" height="20" viewBox="0 0 20 20" fill="none" xmlns="http://www.w3.org/2000/svg">
<path fill-rule="evenodd" clip-rule="evenodd" d="M10 20C15.5228 20 20 15.5228 20 10C20 4.47715 15.5228 0 10 0C4.47715 0 0 4.47715 0 10C0 15.5228 4.47715 20 10 20ZM14.278 5.82248C14.2173 6.12728 14.1212 6.39248 13.9278 6.61899C13.1843 7.48999 12.469 8.38398 11.7537 9.27791C11.195 9.97615 10.6364 10.6744 10.0643 11.3615C9.65768 11.85 9.26221 12.3473 8.86678 12.8446L8.86676 12.8446C8.42182 13.4041 7.97693 13.9635 7.51621 14.5103C7.37903 14.6731 7.21701 14.7805 7.03464 14.8849C6.68514 15.085 6.4594 14.8603 6.29214 14.6477C6.2793 14.6314 6.26609 14.615 6.25271 14.5983L6.25261 14.5982C6.09037 14.396 5.90533 14.1653 6.1099 13.847C6.39639 13.4013 6.7344 12.9968 7.07231 12.5925L7.07233 12.5924C7.22586 12.4087 7.37938 12.225 7.52803 12.0375C8.11479 11.2973 8.71084 10.5645 9.30688 9.8317L9.30692 9.83166C9.62267 9.44345 9.93842 9.05525 10.2528 8.66595C10.6523 8.17121 11.0509 7.67567 11.4495 7.18013C11.9188 6.59669 12.3881 6.01324 12.859 5.43108C13.0839 5.15294 13.576 5.04129 13.9019 5.17876C14.1207 5.27105 14.1709 5.45713 14.2195 5.6374C14.2367 5.7013 14.2537 5.76448 14.278 5.82248ZM7.28816 9.64279C5.89276 9.67931 5.09359 8.58164 5.12067 7.5775C5.15033 6.47466 5.93725 5.53803 7.27934 5.5339C8.30244 5.53069 9.40766 6.46312 9.37478 7.68873C9.35177 8.54764 8.46117 9.76416 7.28816 9.64279ZM7.32313 8.16233C7.70649 8.16114 8.00779 7.92378 8.01457 7.62374C8.01947 7.40695 7.63031 6.9861 7.32188 7.01786C6.99029 7.05207 6.63226 7.33427 6.63317 7.62591C6.63408 7.92812 6.93691 8.16352 7.32313 8.16233ZM12.8539 14.432C11.6525 14.4641 10.6763 13.4634 10.6749 12.351C10.6737 11.3827 11.4952 10.288 12.8716 10.3149C14.2822 10.3424 15.0443 11.3618 15.04 12.3548C15.0351 13.4696 14.1416 14.4168 12.8539 14.432ZM12.8277 11.8088C12.4471 11.8125 12.1424 12.0593 12.1493 12.3582C12.1558 12.6363 12.5288 12.9486 12.8509 12.9457C13.1832 12.9426 13.5394 12.6199 13.526 12.3341C13.5114 12.0235 13.221 11.8051 12.8277 11.8088Z" fill="#00607C"/>
</svg>
