<svg width="50" height="50" viewBox="0 0 50 50" fill="none" xmlns="http://www.w3.org/2000/svg">
<path fill-rule="evenodd" clip-rule="evenodd" d="M28.9025 30.2067C37.3214 30.2067 44.1464 23.4447 44.1464 15.1033C44.1464 6.76199 37.3214 0 28.9025 0C20.4835 0 13.6586 6.76199 13.6586 15.1033C13.6586 23.4447 20.4835 30.2067 28.9025 30.2067ZM35.4238 8.79389C35.3313 9.25423 35.1848 9.65477 34.89 9.99688C33.7566 11.3123 32.6663 12.6625 31.576 14.0126L31.5758 14.0127C30.7242 15.0673 29.8725 16.1218 29.0005 17.1597C28.3806 17.8975 27.7778 18.6486 27.175 19.3996L27.175 19.3996C26.4967 20.2446 25.8185 21.0896 25.1162 21.9154C24.9071 22.1612 24.6601 22.3235 24.3821 22.4812C23.8493 22.7833 23.5052 22.4441 23.2502 22.123C23.2307 22.0983 23.2105 22.0734 23.1901 22.0482L23.19 22.0481C22.9427 21.7427 22.6606 21.3944 22.9724 20.9136C23.4092 20.2403 23.9244 19.6295 24.4396 19.0188C24.6736 18.7413 24.9076 18.4639 25.1342 18.1807C26.0287 17.0627 26.9373 15.9559 27.846 14.8491C28.3273 14.2627 28.8086 13.6764 29.2878 13.0885C29.8968 12.3414 30.5043 11.593 31.1118 10.8447L31.1121 10.8444C31.8274 9.96323 32.5429 9.08202 33.2607 8.20275C33.6036 7.78266 34.3537 7.61403 34.8504 7.82165C35.1841 7.96104 35.2605 8.24209 35.3346 8.51435C35.3609 8.61087 35.3868 8.70628 35.4238 8.79389ZM24.7686 14.5638C22.6414 14.619 21.4232 12.9611 21.4645 11.4446C21.5097 9.77889 22.7093 8.36427 24.7551 8.35804C26.3147 8.35318 27.9995 9.76146 27.9494 11.6125C27.9143 12.9098 26.5567 14.7471 24.7686 14.5638ZM24.8219 12.3278C25.4063 12.326 25.8656 11.9675 25.8759 11.5144C25.8834 11.187 25.2901 10.5513 24.82 10.5993C24.3145 10.651 23.7687 11.0772 23.7701 11.5177C23.7715 11.9741 24.2331 12.3296 24.8219 12.3278ZM33.2529 21.7972C31.4215 21.8457 29.9334 20.3341 29.9313 18.6541C29.9294 17.1916 31.1818 15.5383 33.28 15.5789C35.4301 15.6205 36.592 17.1601 36.5854 18.6599C36.5779 20.3435 35.2159 21.7742 33.2529 21.7972ZM33.213 17.8353C32.6328 17.8408 32.1683 18.2135 32.1788 18.665C32.1887 19.085 32.7573 19.5567 33.2483 19.5523C33.7549 19.5476 34.298 19.0603 34.2775 18.6287C34.2552 18.1595 33.8125 17.8296 33.213 17.8353Z" fill="white"/>
<path fill-rule="evenodd" clip-rule="evenodd" d="M7.98546 45.8301C7.98827 47.2201 7.99108 48.6101 7.9922 50H34.7624C34.7868 49.991 34.8109 49.9805 34.835 49.97C34.8868 49.9474 34.9387 49.9248 34.9928 49.9167C36.4702 49.6952 37.7148 49.0316 38.7661 47.9892C40.3998 46.3694 42.0342 44.7502 43.6687 43.1311C45.5799 41.2379 47.4911 39.3446 49.4011 37.4501C50.2223 36.6355 50.196 35.7758 49.3407 34.9863C46.5543 32.4138 42.1446 32.4439 39.4033 35.0941C37.2912 37.1361 35.2134 39.2134 33.1398 41.2942C32.2144 42.2228 31.1343 42.6701 29.8113 42.6547C28.0628 42.6345 26.314 42.6385 24.5652 42.6424C23.7818 42.6442 22.9985 42.646 22.2151 42.6456C22.1071 42.6455 21.9988 42.6466 21.8906 42.6477C21.5622 42.6511 21.2336 42.6545 20.9081 42.6254C20.2618 42.5677 19.815 42.204 19.6196 41.5973C19.4307 41.0102 19.583 40.4845 20.0438 40.0556C20.3998 39.7242 20.835 39.6532 21.3004 39.6536C24.1679 39.6563 27.0354 39.6572 29.9028 39.6519L29.9061 39.6519C30.2558 39.6513 30.6135 39.6507 30.9535 39.582C32.8641 39.1959 34.015 37.6897 34.0586 35.5508C34.0818 34.4163 33.5019 33.8114 32.3619 33.8054C30.8695 33.7975 29.377 33.7979 27.8845 33.8052C26.9871 33.8096 26.1185 33.6692 25.2687 33.3832C24.1714 33.0139 23.1174 32.5386 22.0952 32.011C18.7074 30.2625 15.195 30.0378 11.5586 31.0553C9.53662 31.6209 8.00156 33.4383 7.99049 35.4465C7.97146 38.9076 7.97846 42.3689 7.98546 45.8301ZM0.000186576 48.0676C-0.00846846 48.9895 0.282683 49.6371 1.14869 50H4.97301C4.97183 49.9679 4.97032 49.9357 4.9688 49.9036C4.96562 49.8363 4.96244 49.769 4.96244 49.7017C4.96234 48.8081 4.96208 47.9145 4.96182 47.0209C4.96072 43.2843 4.95963 39.5476 4.97059 35.8109C4.9718 35.409 4.88193 35.2599 4.44998 35.2764C3.86419 35.2987 3.27739 35.2944 2.69055 35.2901C2.4061 35.288 2.12163 35.2859 1.83727 35.2868C0.556625 35.291 0.0150813 35.8336 0.0146787 37.1144C0.0143633 38.1549 0.0158294 39.1953 0.0172956 40.2358C0.0209744 42.8465 0.0246533 45.4572 0.000186576 48.0676Z" fill="white"/>
</svg>
