<svg width="50" height="63" viewBox="0 0 50 63" fill="none" xmlns="http://www.w3.org/2000/svg">
<path fill-rule="evenodd" clip-rule="evenodd" d="M39.0402 50.8422C38.2085 51.3926 37.0895 51.1624 36.5408 50.3281C35.9922 49.4938 36.2216 48.3713 37.0533 47.8209C42.8394 43.9919 46.3918 37.5178 46.3918 30.4348C46.3918 20.2828 39.0947 11.6588 29.2383 9.93341C29.0312 9.89715 28.8234 9.86404 28.6149 9.83408C28.4616 9.81205 28.3155 9.77128 28.1787 9.71442C27.797 9.69288 27.531 9.66096 27.531 9.66096C27.531 9.66096 21.1345 9.28762 19.7473 9.09163C18.36 8.89564 19.0428 7.23904 19.7473 6.53229L27.531 0.533706C28.6676 -0.606393 30.6108 0.201053 30.6108 1.81338V6.5117C41.8042 8.83623 50 18.7761 50 30.4348C50 38.7472 45.8281 46.3502 39.0402 50.8422ZM13.4592 11.8134C12.9105 10.9791 11.7915 10.7489 10.9598 11.2993C4.17189 15.7913 0 23.3943 0 31.7067C0 43.3654 8.19577 53.3053 19.3892 55.6298V60.3281C19.3892 61.9405 21.3324 62.7479 22.469 61.6078L30.2527 55.6092C30.9572 54.9025 31.64 53.2459 30.2527 53.0499C28.8655 52.8539 22.469 52.4806 22.469 52.4806C22.469 52.4806 22.203 52.4486 21.8213 52.4271C21.6845 52.3702 21.5385 52.3295 21.3851 52.3074C21.1766 52.2775 20.9688 52.2443 20.7617 52.2081C10.9053 50.4827 3.60818 41.8587 3.60818 31.7067C3.60818 24.6237 7.16058 18.1496 12.9467 14.3206C13.7784 13.7702 14.0078 12.6477 13.4592 11.8134ZM34.0612 33.0733C33.52 37.7696 30.9221 40.5114 25.9158 40.5114C21.0177 40.5114 18.2303 37.471 17.635 33.1819H15.9572V31.2545H17.5267V29.8429H15.9572V27.9155H17.6621C18.3386 23.545 21.4506 20.5046 26.0781 20.5046C30.7327 20.5046 33.52 22.8934 33.9259 27.5083H28.8113C28.5678 25.6624 27.6477 24.6851 26.024 24.6851C24.265 24.6851 23.3449 25.9338 23.0202 27.9155H27.2147L26.89 29.8429H22.912V31.2545H26.6464L26.3217 33.1819H23.0202C23.3179 35.1093 24.238 36.2223 26.0511 36.2223C27.8642 36.2223 28.7302 35.1636 28.9737 33.0733H34.0612Z" fill="white"/>
</svg>
