<svg width="240" height="240" viewBox="0 0 240 240" fill="none" xmlns="http://www.w3.org/2000/svg">
<rect width="240" height="240" rx="120" fill="white"/>
<g clip-path="url(#clip0_2647_457)">
<path d="M118.248 65.2361C118.8 64.9954 119.395 64.8711 119.997 64.8711C120.599 64.8711 121.194 64.9954 121.746 65.2361C143.307 74.6601 163.872 86.2125 183.138 99.7217C183.817 100.198 184.346 100.857 184.665 101.623C184.983 102.389 185.077 103.229 184.936 104.046C184.795 104.863 184.424 105.623 183.867 106.238C183.311 106.852 182.591 107.296 181.791 107.517C161.79 113.041 142.437 120.687 124.061 130.324L124.043 130.336C123.379 130.686 122.72 131.03 122.061 131.385C121.427 131.724 120.719 131.902 120 131.902C119.281 131.902 118.573 131.724 117.939 131.385C110.058 127.179 101.99 123.331 93.7613 119.853V118.547C93.7613 117.784 94.1519 117.101 94.764 116.734C103.564 111.401 112.617 106.498 121.892 102.042C122.937 101.54 123.74 100.642 124.124 99.5479C124.508 98.4534 124.441 97.2513 123.938 96.2061C123.436 95.1608 122.539 94.358 121.444 93.9742C120.35 93.5904 119.148 93.6571 118.102 94.1597C108.574 98.738 99.2742 103.775 90.234 109.254C88.9479 110.034 87.8383 111.074 86.9761 112.306C86.1138 113.539 85.5178 114.938 85.2259 116.413C76.371 113.006 67.3545 110.035 58.2088 107.511C57.4095 107.29 56.6894 106.847 56.1325 106.232C55.5757 105.618 55.205 104.857 55.0638 104.04C54.9227 103.223 55.0167 102.383 55.3351 101.617C55.6535 100.851 56.1831 100.192 56.862 99.7158C76.1261 86.2091 96.69 74.6587 118.248 65.2361Z" fill="#999999"/>
<path d="M126.177 139.093C140.497 131.442 155.451 125.04 170.871 119.958C171.652 128.202 172.154 136.534 172.358 144.935C172.38 145.816 172.136 146.683 171.658 147.422C171.179 148.162 170.488 148.74 169.676 149.08C153.149 155.983 137.325 164.46 122.422 174.395C121.704 174.874 120.86 175.129 119.997 175.129C119.134 175.129 118.29 174.874 117.572 174.395C102.671 164.46 86.8487 155.983 70.3237 149.08C69.511 148.741 68.8196 148.165 68.34 147.426C67.8604 146.687 67.6151 145.821 67.636 144.941C67.8401 136.534 68.3415 128.208 69.1227 119.953C74.4923 121.725 79.7919 123.649 85.0158 125.725V133.129C83.7561 133.855 82.6972 134.883 81.9349 136.121C81.1726 137.359 80.731 138.767 80.65 140.219C80.5689 141.671 80.8511 143.119 81.4708 144.435C82.0906 145.75 83.0285 146.889 84.1996 147.751C83.6748 149.966 82.9053 152.141 81.885 154.222C84.5202 155.464 87.138 156.753 89.7324 158.07C91.1948 155.096 92.2743 151.947 92.9448 148.701C94.4192 148.046 95.6835 146.995 96.5977 145.666C97.512 144.336 98.0406 142.78 98.1251 141.168C98.2096 139.557 97.8467 137.954 97.0764 136.536C96.3062 135.118 95.1588 133.941 93.7611 133.135V129.374C100.571 132.349 107.262 135.591 113.817 139.093C115.718 140.109 117.841 140.64 119.997 140.64C122.153 140.64 124.275 140.109 126.177 139.093Z" fill="#999999"/>
<path d="M76.0486 162.349C78.4973 159.907 80.4387 157.161 81.8788 154.216C84.5199 155.464 87.1376 156.752 89.732 158.076C87.8244 161.951 85.2913 165.484 82.2344 168.535C81.4055 169.308 80.3092 169.728 79.1764 169.708C78.0435 169.688 76.9627 169.229 76.1616 168.428C75.3604 167.627 74.9015 166.546 74.8815 165.413C74.8616 164.28 75.282 163.184 76.0544 162.355L76.0486 162.349Z" fill="#999999"/>
</g>
<defs>
<clipPath id="clip0_2647_457">
<rect width="130" height="112" fill="white" transform="translate(55 64)"/>
</clipPath>
</defs>
</svg>
