<svg width="70" height="70" viewBox="0 0 70 70" fill="none" xmlns="http://www.w3.org/2000/svg">
<circle cx="35" cy="35" r="35" fill="white"/>
<path fill-rule="evenodd" clip-rule="evenodd" d="M35.0011 27.0009L33.4721 27.0008C31.6765 27.0005 29.881 27.0002 28.0854 27.0036L28.0739 27.0036C27.8475 27.0041 27.6886 27.0045 27.7547 26.6811C28.3183 23.9245 29.0911 21.2411 30.4835 18.7718C31.101 17.6769 31.8211 16.6601 32.8181 15.8704C34.2797 14.7128 35.7265 14.7068 37.1802 15.8706C38.5605 16.9756 39.426 18.4606 40.1646 20.0273C41.1584 22.135 41.7717 24.364 42.2386 26.6389C42.3016 26.9456 42.2106 27.0082 41.9168 27.0069C40.1545 26.9987 38.3922 26.9996 36.63 27.0004C36.087 27.0007 35.5441 27.0009 35.0011 27.0009ZM34.9823 40.3356C34.4103 40.3356 33.8383 40.3352 33.2663 40.3349C31.409 40.3337 29.5516 40.3325 27.6943 40.3436C27.388 40.3454 27.2928 40.2528 27.2623 39.9603C26.917 36.649 26.9171 33.3391 27.264 30.0278C27.2926 29.7555 27.3783 29.6605 27.668 29.6611C32.5544 29.6706 37.4409 29.6703 42.3274 29.6618C42.6078 29.6613 42.7072 29.7412 42.7366 30.0222C43.0829 33.3335 43.0843 36.6434 42.7382 39.9547C42.7086 40.2386 42.6264 40.3461 42.312 40.3441C40.4449 40.3323 38.5777 40.3335 36.7105 40.3348C36.1344 40.3352 35.5584 40.3356 34.9823 40.3356ZM36.4733 43.0026L35.0258 43.0025L33.5536 43.0026C31.7254 43.0028 29.8971 43.0029 28.0689 43.0009L28.0335 43.0008C27.8421 42.9995 27.6915 42.9986 27.752 43.2974C28.3244 46.1242 29.1208 48.8722 30.575 51.3898C31.1826 52.4417 31.8931 53.4144 32.8643 54.1683C34.2882 55.2736 35.7073 55.2758 37.1294 54.1749C38.0214 53.4844 38.6945 52.6045 39.271 51.6476C40.8249 49.0684 41.65 46.2285 42.2475 43.3065C42.3122 42.9903 42.1529 42.9951 41.9716 43.0005C41.9478 43.0012 41.9235 43.0019 41.8994 43.0019C40.0907 43.0027 38.282 43.0026 36.4733 43.0026ZM20.1707 40.3356C19.8165 40.3356 19.4623 40.3351 19.1082 40.3346C18.1019 40.3332 17.0956 40.3317 16.0895 40.3417C15.8163 40.3445 15.7169 40.2586 15.6477 39.9916C14.7868 36.6705 14.7828 33.3541 15.6433 30.0322C15.7154 29.754 15.8138 29.659 16.1103 29.6604C18.8171 29.6732 21.5241 29.673 24.2311 29.6609C24.5396 29.6595 24.63 29.7183 24.5964 30.0465C24.3363 32.5772 24.2499 35.1136 24.4133 37.6549C24.464 38.444 24.52 39.2333 24.6004 40.0198C24.6282 40.2926 24.5456 40.343 24.2935 40.3409C23.2716 40.3325 22.2495 40.3337 21.2275 40.3348C20.8752 40.3352 20.5229 40.3356 20.1707 40.3356ZM48.7424 40.3343C49.1029 40.3349 49.4633 40.3356 49.8237 40.3356C50.1769 40.3356 50.5301 40.3351 50.8833 40.3347C51.8905 40.3334 52.8978 40.3321 53.9049 40.3413C54.1721 40.3438 54.2813 40.2712 54.3521 39.998C55.2119 36.6768 55.2172 33.3607 54.3605 30.0377C54.2804 29.7272 54.148 29.6607 53.855 29.6619C51.1758 29.6721 48.4966 29.6738 45.8175 29.6605C45.484 29.6588 45.362 29.7076 45.4055 30.082C45.5562 31.378 45.6259 32.6814 45.6579 33.9859C45.7069 35.9867 45.6076 37.9822 45.4047 39.9721C45.3748 40.2662 45.4415 40.3464 45.7426 40.3427C46.7424 40.3307 47.7424 40.3325 48.7424 40.3343ZM40.8141 15.8496C46.6338 17.7904 50.7439 21.4695 53.2963 26.9062C53.2001 27.0186 53.1051 27.01 53.0194 27.0022C52.9982 27.0003 52.9776 26.9984 52.9577 26.9984C52.1502 26.9995 51.3427 26.9994 50.5352 26.9993H50.5348C48.8159 26.9991 47.0971 26.9989 45.3784 27.0096C45.0504 27.0117 44.9668 26.8942 44.9133 26.6C44.3419 23.4602 43.4548 20.4234 41.8968 17.6153C41.6847 17.2332 41.4509 16.8631 41.1977 16.4622L41.1977 16.4621L41.1976 16.462C41.0743 16.2668 40.9464 16.0643 40.8141 15.8496ZM29.1392 15.9536C23.3706 17.7924 19.2564 21.4674 16.6799 26.9577C16.7201 26.9681 16.7486 26.9765 16.7699 26.9828L16.77 26.9828L16.77 26.9828C16.8024 26.9923 16.8185 26.9971 16.8345 26.9971C17.5297 26.9976 18.2249 26.9977 18.9201 26.9978C20.8625 26.9981 22.8049 26.9984 24.7473 27.0073C25.0078 27.0085 25.0336 26.8666 25.0628 26.7063C25.0668 26.6845 25.0708 26.6624 25.0755 26.6402C25.1275 26.3944 25.1774 26.148 25.2272 25.9017C25.3396 25.3463 25.452 24.791 25.5891 24.2419C26.2781 21.4834 27.2346 18.833 28.8192 16.4441C28.8915 16.335 28.9627 16.2253 29.0339 16.1155C29.069 16.0615 29.104 16.0075 29.1392 15.9536ZM16.746 43.0414C16.8303 42.9857 16.9228 42.9928 17.0139 42.9998C17.0444 43.0022 17.0746 43.0045 17.1044 43.0045C17.8779 43.0037 18.6514 43.0039 19.425 43.004H19.4259C21.1508 43.0044 22.8756 43.0048 24.6005 42.9941C24.9396 42.992 25.033 43.1089 25.0908 43.4226C25.7076 46.7688 26.6672 49.9977 28.4252 52.9451C28.5217 53.1068 28.6248 53.2644 28.7278 53.422L28.7279 53.4221L28.783 53.5065C28.8636 53.6301 28.9458 53.7527 29.032 53.8813L29.0321 53.8814L29.0331 53.8829C29.0733 53.9429 29.1144 54.0042 29.1566 54.0675C24.8752 53.4743 17.8753 47.2422 16.746 43.0414ZM41.0888 53.7056C41.0102 53.825 40.9308 53.9457 40.8513 54.0688C45.0913 53.5044 52.1798 47.1872 53.2572 43.0257C53.24 43.0232 53.2231 43.0201 53.2063 43.017C53.1708 43.0104 53.1359 43.0039 53.101 43.0039C52.402 43.0036 51.7031 43.0036 51.0041 43.0037C49.0934 43.0037 47.1827 43.0038 45.272 42.9965C45.0281 42.9955 44.965 43.1032 44.932 43.3032C44.878 43.6314 44.8172 43.9587 44.749 44.2842C44.1117 47.3264 43.1822 50.2622 41.5726 52.9475C41.4197 53.2026 41.2561 53.4513 41.0888 53.7056Z" fill="#999999"/>
</svg>
