<svg width="70" height="70" viewBox="0 0 70 70" fill="none" xmlns="http://www.w3.org/2000/svg">
<circle cx="35" cy="35" r="35" fill="white"/>
<path fill-rule="evenodd" clip-rule="evenodd" d="M38.122 39.1653C44.8572 39.1653 50.3171 33.7557 50.3171 27.0827C50.3171 20.4096 44.8572 15 38.122 15C31.3868 15 25.9268 20.4096 25.9268 27.0827C25.9268 33.7557 31.3868 39.1653 38.122 39.1653ZM43.3391 22.0351C43.265 22.4034 43.1479 22.7238 42.912 22.9975C42.0053 24.0499 41.133 25.13 40.2607 26.2101L40.2607 26.2102C39.5793 27.0538 38.898 27.8975 38.2004 28.7278C37.7045 29.318 37.2222 29.9188 36.74 30.5196L36.74 30.5197C36.1974 31.1957 35.6548 31.8717 35.093 32.5323C34.9257 32.729 34.7281 32.8588 34.5057 32.9849C34.0795 33.2267 33.8042 32.9553 33.6002 32.6984C33.5845 32.6786 33.5684 32.6587 33.552 32.6385L33.552 32.6385C33.3541 32.3942 33.1285 32.1155 33.3779 31.7309C33.7273 31.1923 34.1395 30.7036 34.5516 30.215L34.5516 30.215C34.7389 29.9931 34.9261 29.7711 35.1074 29.5445C35.823 28.6502 36.5499 27.7647 37.2768 26.8792L37.2769 26.879C37.6619 26.41 38.0469 25.9411 38.4302 25.4708C38.9175 24.873 39.4036 24.2742 39.8897 23.6755L39.8897 23.6754C40.462 22.9705 41.0343 22.2656 41.6085 21.5622C41.8829 21.2261 42.483 21.0912 42.8803 21.2573C43.1473 21.3688 43.2084 21.5937 43.2677 21.8115L43.2677 21.8115C43.2887 21.8887 43.3095 21.965 43.3391 22.0351ZM34.8148 26.6511C33.1131 26.6952 32.1385 25.3689 32.1716 24.1556C32.2077 22.8231 33.1674 21.6914 34.8041 21.6864C36.0518 21.6825 37.3996 22.8092 37.3595 24.29C37.3314 25.3278 36.2453 26.7977 34.8148 26.6511ZM34.8575 24.8623C35.325 24.8608 35.6924 24.574 35.7007 24.2115C35.7067 23.9496 35.2321 23.4411 34.856 23.4794C34.4516 23.5208 34.015 23.8618 34.0161 24.2141C34.0172 24.5793 34.3865 24.8637 34.8575 24.8623ZM41.6023 32.4377C40.1372 32.4765 38.9467 31.2673 38.945 29.9233C38.9435 28.7533 39.9454 27.4307 41.624 27.4631C43.3441 27.4964 44.2736 28.7281 44.2683 29.9279C44.2623 31.2748 43.1727 32.4194 41.6023 32.4377ZM41.5704 29.2682C41.1062 29.2726 40.7346 29.5708 40.7431 29.932C40.751 30.268 41.2059 30.6454 41.5986 30.6418C42.0039 30.6381 42.4384 30.2482 42.422 29.9029C42.4042 29.5276 42.05 29.2637 41.5704 29.2682Z" fill="#999999"/>
<path fill-rule="evenodd" clip-rule="evenodd" d="M21.3884 51.6641C21.3906 52.7761 21.3929 53.8881 21.3938 55H42.8099C42.8294 54.9928 42.8487 54.9844 42.868 54.976C42.9095 54.9579 42.951 54.9399 42.9942 54.9333C44.1761 54.7562 45.1718 54.2253 46.0129 53.3914C47.3198 52.0955 48.6274 50.8002 49.9349 49.5049C51.4639 47.9903 52.9929 46.4757 54.5209 44.9601C55.1779 44.3084 55.1568 43.6207 54.4726 42.989C52.2434 40.9311 48.7156 40.9552 46.5227 43.0753C44.833 44.7089 43.1707 46.3707 41.5118 48.0353C40.7715 48.7782 39.9075 49.1361 38.8491 49.1238C37.4503 49.1076 36.0512 49.1108 34.6521 49.1139C34.0255 49.1154 33.3988 49.1168 32.7721 49.1165C32.6856 49.1164 32.5991 49.1173 32.5124 49.1182C32.2498 49.1209 31.9869 49.1236 31.7265 49.1003C31.2095 49.0542 30.852 48.7632 30.6957 48.2778C30.5446 47.8082 30.6664 47.3876 31.0351 47.0444C31.3198 46.7794 31.668 46.7226 32.0403 46.7229C34.3343 46.725 36.6283 46.7258 38.9223 46.7215L38.9249 46.7215C39.2046 46.7211 39.4908 46.7206 39.7628 46.6656C41.2913 46.3567 42.212 45.1518 42.2469 43.4406C42.2654 42.5331 41.8015 42.0491 40.8895 42.0443C39.6956 42.038 38.5016 42.0383 37.3076 42.0442C36.5897 42.0477 35.8948 41.9354 35.2149 41.7066C34.3371 41.4111 33.4939 41.0309 32.6761 40.6088C29.9659 39.21 27.156 39.0302 24.2469 39.8442C22.6293 40.2967 21.4012 41.7506 21.3924 43.3572C21.3772 46.126 21.3828 48.8951 21.3884 51.6641ZM15.0001 53.4541C14.9932 54.1916 15.2261 54.7097 15.919 55H18.9784C18.9775 54.9743 18.9763 54.9486 18.975 54.9229C18.9725 54.869 18.97 54.8152 18.97 54.7613C18.9699 54.0465 18.9697 53.3316 18.9695 52.6167C18.9686 49.6274 18.9677 46.638 18.9765 43.6487C18.9774 43.3272 18.9055 43.2079 18.56 43.2211C18.0914 43.2389 17.6219 43.2355 17.1524 43.232C16.9249 43.2304 16.6973 43.2287 16.4698 43.2295C15.4453 43.2328 15.0121 43.6668 15.0117 44.6916C15.0115 45.5239 15.0127 46.3563 15.0138 47.1886C15.0168 49.2772 15.0197 51.3658 15.0001 53.4541Z" fill="#999999"/>
</svg>
