<svg width="240" height="240" viewBox="0 0 240 240" fill="none" xmlns="http://www.w3.org/2000/svg">
<rect width="240" height="240" rx="120" fill="white"/>
<g clip-path="url(#clip0_2647_469)">
<path d="M115 71.2572C104.554 64.542 92.4051 60.9816 80 61.0001C72.6199 60.9925 65.2927 62.2483 58.3333 64.7135C57.3586 65.0594 56.5147 65.7 55.9177 66.5471C55.3208 67.3943 55.0001 68.4063 55 69.4439V164.789C55.0001 165.591 55.1921 166.382 55.5599 167.095C55.9276 167.808 56.4604 168.422 57.1135 168.885C57.7666 169.349 58.521 169.648 59.3132 169.758C60.1055 169.869 60.9126 169.787 61.6667 169.519C67.5556 167.435 73.7556 166.373 80 166.381C93.3 166.381 105.487 171.111 115 179V71.2572ZM125 179C134.843 170.825 147.224 166.361 160 166.381C166.44 166.381 172.6 167.492 178.333 169.526C179.088 169.794 179.896 169.876 180.688 169.765C181.481 169.654 182.236 169.354 182.889 168.89C183.542 168.426 184.075 167.811 184.442 167.097C184.81 166.384 185.001 165.592 185 164.789V69.4439C185 68.4063 184.679 67.3943 184.082 66.5471C183.485 65.7 182.641 65.0594 181.667 64.7135C174.707 62.2483 167.38 60.9925 160 61.0001C147.595 60.9816 135.446 64.542 125 71.2572V179Z" fill="#999999"/>
</g>
<defs>
<clipPath id="clip0_2647_469">
<rect width="130" height="118" fill="white" transform="translate(55 61)"/>
</clipPath>
</defs>
</svg>
