<svg width="130" height="121" viewBox="0 0 130 121" fill="none" xmlns="http://www.w3.org/2000/svg">
<g clip-path="url(#clip0_2645_310)">
<path d="M21.1281 2.53178C33.9734 0.856337 47.0663 0 60.3572 0C73.6482 0 86.7411 0.862542 99.5864 2.53178C111.484 4.08311 119.959 14.0799 120.665 25.6591C118.595 24.9679 116.451 24.5284 114.276 24.3497C96.9316 22.9065 79.4973 22.9065 62.1525 24.3497C47.5553 25.566 37.1429 37.9394 37.1429 51.8642V78.4603C37.1371 83.5721 38.5406 88.5861 41.1984 92.9487C43.8563 97.3113 47.6651 100.853 52.2044 103.182L35.781 119.639C35.1317 120.289 34.3048 120.732 33.4047 120.911C32.5046 121.09 31.5717 120.998 30.7239 120.646C29.876 120.294 29.1512 119.698 28.641 118.934C28.1307 118.169 27.858 117.27 27.8572 116.35V91.3426C25.6113 91.1032 23.3681 90.8384 21.1281 90.5483C8.69764 88.9225 0 78.0818 0 65.851V27.229C0 15.0045 8.69764 4.15137 21.1281 2.53178Z" fill="#00607C"/>
<path d="M88.2145 32.5781C79.6964 32.5781 71.2588 32.9318 62.9202 33.6268C53.3868 34.4211 46.4287 42.5253 46.4287 51.8705V78.4604C46.4287 87.8119 53.4116 95.9222 62.9573 96.7041C70.6521 97.337 78.4335 97.6783 86.2831 97.728L103.505 114.985C104.154 115.635 104.981 116.078 105.881 116.257C106.781 116.436 107.714 116.344 108.562 115.992C109.41 115.64 110.135 115.044 110.645 114.28C111.155 113.515 111.428 112.616 111.429 111.696V96.8654L113.472 96.7041C123.017 95.9284 130 87.8119 130 78.4604V51.8643C130 42.5253 123.036 34.4211 113.509 33.6206C105.095 32.9233 96.6567 32.5755 88.2145 32.5781Z" fill="#00607C"/>
</g>
<defs>
<clipPath id="clip0_2645_310">
<rect width="130" height="121" fill="white"/>
</clipPath>
</defs>
</svg>
