<svg width="58" height="58" viewBox="0 0 58 58" fill="none" xmlns="http://www.w3.org/2000/svg">
<g filter="url(#filter0_d_2053_2)">
<path fill-rule="evenodd" clip-rule="evenodd" d="M24.3488 21.8088C22.4924 21.8943 21.8813 21.4852 21.9037 19.8026C21.9289 17.9439 21.902 14.4077 21.8712 12.5485C21.8606 11.9052 21.9037 11.1134 21.1622 10.8764C20.382 10.6278 20.0238 11.3285 19.7132 11.9008C17.3174 16.3127 14.9305 22.4062 12.5425 26.8226C11.8289 28.1425 12.2397 29.273 13.6847 29.1568C17.1428 28.8785 17.192 30.9506 17.0353 33.3765C16.976 34.3024 16.4382 38.0315 16.4841 38.9586C16.5193 39.6627 16.3005 40.5948 17.2916 40.7994C18.2039 40.9877 18.5682 40.1562 18.9236 39.5314C21.1291 35.6509 23.8669 28.9617 26.0434 25.0651C26.2678 24.6633 26.4184 23.6613 26.6165 23.2064C26.4592 21.7551 25.3578 21.7624 24.3488 21.8088ZM4 8.25348C4.0347 2.16954 6.22124 0.0141447 12.2481 0.00688C17.1898 0.00129174 22.1315 -0.00653183 27.0731 0.00967413C32.4564 0.0275566 34.437 2.0248 34.4588 7.47727L34.4364 23.9762C34.4084 25.8768 35.0285 26.5697 36.9985 26.6228C41.361 26.7408 43.3466 28.9151 43.4048 33.336C43.4524 36.9667 43.4232 36.1274 43.4199 39.7581C43.4193 40.7908 43.4372 41.8246 44.0137 42.7277C44.5924 43.6346 45.3747 44.3365 46.531 44.1432C47.6301 43.9599 48.5608 43.2345 48.5787 42.1336C48.6873 35.5283 48.7069 34.509 48.6957 27.902C48.6929 26.4239 47.479 26.8821 46.6043 26.8274C41.3632 26.4988 38.1368 22.9966 38.5353 18.1365C38.6886 16.2605 39.4296 14.584 40.9171 13.5709C43.0433 12.1235 42.3789 11.0752 40.8696 9.7949C40.0217 9.07569 39.2309 8.2598 38.5482 7.38356C37.6393 6.21618 37.6046 4.92026 38.7026 3.85513C39.7049 2.88278 41.0336 2.82522 42.0129 3.7389C45.8891 7.35562 49.8911 10.8673 53.0945 15.1323C53.9653 16.2918 54.0023 17.7269 53.9995 19.1485C53.9799 28.1792 54.0084 31.6221 53.9793 40.6527C53.962 46.0247 50.8352 49.3335 45.9019 49.3028C41.3984 49.2749 38.5756 45.9677 38.5364 40.6226C38.5084 36.8058 38.4961 37.4585 38.5392 33.6423C38.556 32.1625 38.096 31.4114 36.4629 31.4142C34.77 31.417 34.4499 32.3027 34.4571 33.7166L34.4538 45.5626C34.4303 49.124 33.5634 49.9718 29.9453 49.9835C22.9519 50.007 15.9591 50.0031 8.96631 49.9863C5.08628 49.9768 4.0347 48.9542 4.00728 44.9775" fill="#00607C"/>
<path fill-rule="evenodd" clip-rule="evenodd" d="M24.3488 21.8088C22.4924 21.8943 21.8813 21.4852 21.9037 19.8026C21.9289 17.9439 21.902 14.4077 21.8712 12.5485C21.8606 11.9052 21.9037 11.1134 21.1622 10.8764C20.382 10.6278 20.0238 11.3285 19.7132 11.9008C17.3174 16.3127 14.9305 22.4062 12.5425 26.8226C11.8289 28.1425 12.2397 29.273 13.6847 29.1568C17.1428 28.8785 17.192 30.9506 17.0353 33.3765C16.976 34.3024 16.4382 38.0315 16.4841 38.9586C16.5193 39.6627 16.3005 40.5948 17.2916 40.7994C18.2039 40.9877 18.5682 40.1562 18.9236 39.5314C21.1291 35.6509 23.8669 28.9617 26.0434 25.0651C26.2678 24.6633 26.4184 23.6613 26.6165 23.2064C26.4592 21.7551 25.3578 21.7624 24.3488 21.8088Z" fill="#F99B0C"/>
</g>
<defs>
<filter id="filter0_d_2053_2" x="0" y="0" width="57.9995" height="58" filterUnits="userSpaceOnUse" color-interpolation-filters="sRGB">
<feFlood flood-opacity="0" result="BackgroundImageFix"/>
<feColorMatrix in="SourceAlpha" type="matrix" values="0 0 0 0 0 0 0 0 0 0 0 0 0 0 0 0 0 0 127 0" result="hardAlpha"/>
<feOffset dy="4"/>
<feGaussianBlur stdDeviation="2"/>
<feComposite in2="hardAlpha" operator="out"/>
<feColorMatrix type="matrix" values="0 0 0 0 0 0 0 0 0 0 0 0 0 0 0 0 0 0 0.25 0"/>
<feBlend mode="normal" in2="BackgroundImageFix" result="effect1_dropShadow_2053_2"/>
<feBlend mode="normal" in="SourceGraphic" in2="effect1_dropShadow_2053_2" result="shape"/>
</filter>
</defs>
</svg>
