<svg width="130" height="130" viewBox="0 0 130 130" fill="none" xmlns="http://www.w3.org/2000/svg">
<g clip-path="url(#clip0_2645_299)">
<path fill-rule="evenodd" clip-rule="evenodd" d="M65 0C29.1 0 0 29.1 0 65C0 100.9 29.1 130 65 130C100.9 130 130 100.9 130 65C130 29.1 100.9 0 65 0ZM70 25C70 23.6739 69.4732 22.4021 68.5355 21.4645C67.5978 20.5268 66.3261 20 65 20C63.6739 20 62.4021 20.5268 61.4645 21.4645C60.5268 22.4021 60 23.6739 60 25V65C60 67.76 62.24 70 65 70H95C96.3261 70 97.5979 69.4732 98.5355 68.5355C99.4732 67.5978 100 66.3261 100 65C100 63.6739 99.4732 62.4021 98.5355 61.4645C97.5979 60.5268 96.3261 60 95 60H70V25Z" fill="#00607C"/>
</g>
<defs>
<clipPath id="clip0_2645_299">
<rect width="130" height="130" fill="white"/>
</clipPath>
</defs>
</svg>
