<svg width="30" height="30" viewBox="0 0 30 30" fill="none" xmlns="http://www.w3.org/2000/svg">
<path fill-rule="evenodd" clip-rule="evenodd" d="M15 0C11.1546 0.0109683 7.46024 1.49837 4.68 4.155V1.5C4.68 1.10218 4.52196 0.720645 4.24066 0.439339C3.95935 0.158035 3.57783 0 3.18 0C2.78217 0 2.40065 0.158035 2.11933 0.439339C1.83804 0.720645 1.68 1.10218 1.68 1.5V8.25C1.68 8.64783 1.83804 9.02936 2.11933 9.31067C2.40065 9.59196 2.78217 9.75 3.18 9.75L6.33 6.75C7.98371 5.0218 10.1161 3.82725 12.4536 3.31966C14.7911 2.81208 17.2269 3.01463 19.4484 3.90129C21.6699 4.78797 23.5758 6.31832 24.9213 8.2959C26.267 10.2735 26.9907 12.6081 27 15C27 15.3978 27.1581 15.7794 27.4394 16.0606C27.7206 16.3419 28.1022 16.5 28.5 16.5C28.8978 16.5 29.2794 16.3419 29.5606 16.0606C29.8419 15.7794 30 15.3978 30 15C30 13.0302 29.6119 11.0796 28.8582 9.25976C28.1043 7.43987 26.9995 5.78628 25.6066 4.39339C24.2137 3.00052 22.5602 1.89563 20.7402 1.14181C18.9204 0.387987 16.9698 0 15 0ZM26.865 20.265L23.67 23.265C22.0154 24.9941 19.8816 26.1889 17.5428 26.6961C15.2039 27.2033 12.7668 26.9994 10.5447 26.1108C8.32251 25.2223 6.4168 23.6896 5.07238 21.7098C3.72796 19.7298 3.00627 17.3932 3 15C3 14.6022 2.84196 14.2206 2.56066 13.9393C2.27935 13.658 1.89783 13.5 1.5 13.5C1.10218 13.5 0.720645 13.658 0.439339 13.9393C0.158035 14.2206 0 14.6022 0 15C0.00792999 17.9292 0.873331 20.792 2.4894 23.235C4.10548 25.678 6.4015 27.5946 9.09411 28.7478C11.7867 29.9011 14.7581 30.2407 17.6415 29.7249C20.525 29.209 23.1942 27.8603 25.32 25.845V28.5C25.32 28.8978 25.4781 29.2794 25.7593 29.5606C26.0406 29.8419 26.4222 30 26.82 30C27.2178 30 27.5994 29.8419 27.8806 29.5606C28.1619 29.2794 28.32 28.8978 28.32 28.5V21.75C28.3162 21.3624 28.1628 20.9914 27.8915 20.7146C27.6203 20.4377 27.2524 20.2766 26.865 20.265ZM24.2308 15.9L22.8462 16.3615C22.5278 16.4648 22.2357 16.6362 21.9901 16.8636C21.7445 17.091 21.5513 17.3692 21.424 17.6788C21.2967 17.9883 21.2382 18.3219 21.2527 18.6563C21.2671 18.9907 21.3541 19.3179 21.5077 19.6154L22.1654 20.9308L20.8962 22.2L19.6154 21.5077C19.3195 21.3602 18.9954 21.2782 18.665 21.2669C18.3346 21.2556 18.0057 21.3155 17.7003 21.4424C17.3952 21.5693 17.1207 21.7603 16.8957 22.0025C16.6707 22.2447 16.5004 22.5324 16.3962 22.8462L15.9346 24.2308H14.1L13.6385 22.8462C13.5352 22.5278 13.3639 22.2357 13.1364 21.9901C12.909 21.7445 12.6308 21.5513 12.3213 21.424C12.0117 21.2967 11.6781 21.2382 11.3437 21.2527C11.0093 21.2671 10.682 21.3541 10.3846 21.5077L9.06923 22.1654L7.8 20.8962L8.49231 19.6154C8.64589 19.3179 8.73291 18.9907 8.74737 18.6563C8.76183 18.3219 8.70335 17.9883 8.57601 17.6788C8.44867 17.3692 8.25552 17.091 8.00995 16.8636C7.76437 16.6362 7.47225 16.4648 7.15385 16.3615L5.76923 15.9V14.1L7.15385 13.6385C7.47225 13.5352 7.76437 13.3639 8.00995 13.1364C8.25552 12.909 8.44867 12.6308 8.57601 12.3213C8.70335 12.0117 8.76183 11.6781 8.74737 11.3437C8.73291 11.0093 8.64589 10.682 8.49231 10.3846L7.83462 9.10385L9.10385 7.83462L10.3846 8.49231C10.682 8.64589 11.0093 8.73291 11.3437 8.74737C11.6781 8.76183 12.0117 8.70335 12.3213 8.57601C12.6308 8.44867 12.909 8.25552 13.1364 8.00995C13.3639 7.76437 13.5352 7.47225 13.6385 7.15385L14.1 5.76923H15.9L16.3615 7.15385C16.4648 7.47225 16.6362 7.76437 16.8636 8.00995C17.091 8.25552 17.3692 8.44867 17.6788 8.57601C17.9883 8.70335 18.3219 8.76183 18.6563 8.74737C18.9907 8.73291 19.3179 8.64589 19.6154 8.49231L20.9308 7.83462L22.2 9.10385L21.5077 10.3846C21.3602 10.6805 21.2782 11.0046 21.2669 11.335C21.2556 11.6654 21.3155 11.9944 21.4424 12.2996C21.5693 12.6049 21.7603 12.8793 22.0025 13.1043C22.2447 13.3294 22.5324 13.4997 22.8462 13.6038L24.2308 14.0654V15.9ZM15 17.3077C14.5436 17.3077 14.0974 17.1723 13.7179 16.9187C13.3384 16.6652 13.0426 16.3048 12.868 15.8832C12.6933 15.4614 12.6476 14.9974 12.7367 14.5498C12.8257 14.1021 13.0455 13.691 13.3682 13.3682C13.691 13.0455 14.1021 12.8257 14.5498 12.7367C14.9974 12.6476 15.4614 12.6933 15.8832 12.868C16.3048 13.0426 16.6652 13.3384 16.9187 13.7179C17.1723 14.0974 17.3077 14.5436 17.3077 15C17.3077 15.612 17.0646 16.199 16.6318 16.6318C16.199 17.0646 15.612 17.3077 15 17.3077Z" fill="#00607C"/>
</svg>
