<svg width="110" height="130" viewBox="0 0 110 130" fill="none" xmlns="http://www.w3.org/2000/svg">
<g clip-path="url(#clip0_2645_307)">
<path fill-rule="evenodd" clip-rule="evenodd" d="M17.1333 2.19038C42.2933 -0.730126 67.7067 -0.730126 92.8667 2.19038C102.847 3.35022 110 11.9224 110 21.7211V124.994C109.999 125.845 109.78 126.682 109.365 127.426C108.95 128.169 108.352 128.794 107.627 129.241C106.903 129.688 106.076 129.943 105.225 129.982C104.375 130.02 103.528 129.84 102.767 129.46L55 105.59L7.23334 129.474C6.47054 129.854 5.62303 130.034 4.77135 129.995C3.91966 129.956 3.0921 129.7 2.36728 129.251C1.64247 128.802 1.04448 128.175 0.630149 127.43C0.215815 126.685 -0.0011041 125.847 4.2259e-06 124.994V21.7211C4.2259e-06 11.9224 7.15334 3.35022 17.1333 2.19038Z" fill="#00607C"/>
</g>
<defs>
<clipPath id="clip0_2645_307">
<rect width="110" height="130" fill="white"/>
</clipPath>
</defs>
</svg>
