<svg width="129" height="130" viewBox="0 0 129 130" fill="none" xmlns="http://www.w3.org/2000/svg">
<g clip-path="url(#clip0_2645_320)">
<path fill-rule="evenodd" clip-rule="evenodd" d="M22.6997 6.9214V12.2348C16.2902 13.1513 9.94887 14.2784 3.68183 15.5974C2.50899 15.8459 1.47767 16.5383 0.803615 17.5298C0.129564 18.5212 -0.134995 19.7349 0.0652816 20.917C1.62936 30.1071 6.2193 38.5112 13.1061 44.7943C19.9928 51.0775 28.7815 54.8794 38.0762 55.5962C43.0245 59.6403 48.8365 62.4923 55.0629 63.9316C54.4712 70.9605 52.0991 77.7229 48.1704 83.5812H43.594C37.1783 83.5812 31.9826 88.7831 31.9826 95.1925V111.448H27.3381C23.6426 111.448 20.0985 112.916 17.4855 115.53C14.8724 118.143 13.4044 121.687 13.4044 125.382C13.4044 127.946 15.4852 130.027 18.049 130.027H110.94C112.172 130.027 113.353 129.537 114.224 128.666C115.095 127.795 115.584 126.614 115.584 125.382C115.584 121.687 114.116 118.143 111.503 115.53C108.89 112.916 105.346 111.448 101.651 111.448H97.0062V95.1925C97.0062 88.7769 91.8043 83.5812 85.3949 83.5812H80.8184C76.8917 77.7224 74.5217 70.96 73.9321 63.9316C80.1591 62.4904 85.9711 59.6363 90.9188 55.59C100.215 54.8745 109.005 51.0732 115.893 44.7899C122.781 38.5067 127.372 30.1019 128.936 20.9108C129.134 19.7288 128.868 18.5159 128.193 17.5257C127.518 16.5355 126.486 15.8445 125.313 15.5974C119.015 14.2669 112.674 13.1454 106.302 12.2348V6.9152C106.301 5.78242 105.887 4.68887 105.136 3.84033C104.386 2.99179 103.351 2.44677 102.227 2.30781C89.7097 0.749616 77.108 -0.0301028 64.4944 -0.0268453C51.7188 -0.0268453 39.129 0.765824 26.7621 2.30781C25.639 2.44816 24.6058 2.99379 23.8566 3.84219C23.1074 4.69059 22.6938 5.78336 22.6935 6.9152L22.6997 6.9214ZM22.6997 23.2021C22.6997 30.6086 24.6318 37.5692 28.0069 43.6009C23.8209 41.7239 20.0782 38.9847 17.023 35.5625C13.9679 32.1403 11.6692 28.112 10.2771 23.7408C14.4016 22.9405 18.5435 22.2323 22.6997 21.6167V23.2021ZM106.302 23.2021V21.6167C110.475 22.236 114.618 22.942 118.724 23.7408C117.332 28.1122 115.034 32.1407 111.979 35.5629C108.923 38.9852 105.18 41.7242 100.994 43.6009C104.485 37.3694 106.312 30.3445 106.302 23.2021Z" fill="#00607C"/>
</g>
<defs>
<clipPath id="clip0_2645_320">
<rect width="129" height="130" fill="white"/>
</clipPath>
</defs>
</svg>
