<svg width="66" height="50" viewBox="0 0 66 50" fill="none" xmlns="http://www.w3.org/2000/svg">
<path fill-rule="evenodd" clip-rule="evenodd" d="M44.5028 33.4946C44.5511 34.1186 44.7975 34.2332 45.3644 34.2283C47.6569 34.208 49.9495 34.2107 52.2422 34.2134C53.0306 34.2144 53.819 34.2153 54.6074 34.2153C55.486 34.2153 56.3647 34.2156 57.2434 34.2158C59.3912 34.2164 61.5391 34.217 63.6868 34.214C65.1461 34.212 65.6838 33.4866 65.2299 32.1136C64.7411 30.6353 64.2498 29.1577 63.7585 27.6801C62.8095 24.8257 61.8604 21.9713 60.929 19.1112C60.7514 18.5656 60.5072 18.4145 59.9516 18.4168C54.6622 18.4397 49.3726 18.4441 44.0833 18.4139C43.4028 18.4099 43.2762 18.6252 43.33 19.2469C43.7399 23.9945 44.1345 28.7436 44.5028 33.4946ZM1.71113 34.2141C0.239721 34.2121 -0.297435 33.4964 0.156767 32.1218C0.659948 30.5989 1.16565 29.0768 1.67136 27.5547C2.60514 24.7441 3.53892 21.9336 4.4568 19.1177C4.63187 18.5807 4.86551 18.4133 5.42934 18.416C10.7184 18.4405 16.0079 18.4429 21.297 18.4146C21.9611 18.4112 22.1154 18.6001 22.0599 19.2389C21.6476 23.986 21.2551 28.735 20.8846 33.4857C20.8372 34.0944 20.6137 34.2353 20.0325 34.2296C17.7443 34.207 15.4559 34.2101 13.1675 34.2131H13.1675C12.375 34.2142 11.5826 34.2153 10.7901 34.2153C9.90311 34.2153 9.01611 34.2155 8.1291 34.2157H8.12909C5.98977 34.2163 3.85041 34.2169 1.71113 34.2141ZM25.1631 49.9983C25.1631 49.9983 23.2699 49.8091 23.2447 47.7231C23.2196 45.637 25.1726 45.4478 25.1726 45.4478C25.1726 45.4478 28.8258 45.4273 30.6518 45.458C31.1913 45.4671 31.4046 45.3661 31.4002 44.7561C31.3717 40.8388 31.3732 38.8442 31.3992 34.9268C31.403 34.3465 31.2443 34.1929 30.6731 34.2018C29.4518 34.2207 28.2303 34.2191 27.0088 34.2176C26.0495 34.2164 25.0901 34.2152 24.1308 34.2238C23.6331 34.2284 23.4242 34.1678 23.4775 33.5605C23.9036 28.7054 24.2927 23.8468 24.676 18.9878C24.7086 18.5743 24.831 18.4222 25.2582 18.4232C30.2195 18.4354 35.1811 18.4359 40.1424 18.4227C40.5845 18.4216 40.6811 18.601 40.7127 19C41.0954 23.8315 41.4841 28.6626 41.9026 33.4912C41.9525 34.0681 41.8419 34.239 41.2449 34.2293C40.1628 34.2118 39.0802 34.2137 37.9977 34.2155H37.9976C36.8992 34.2174 35.8008 34.2193 34.7028 34.201C34.1122 34.1911 33.9878 34.3804 33.9911 34.9402C34.0146 38.8577 34.0132 40.8521 33.9922 44.7696C33.9895 45.3004 34.1267 45.4684 34.669 45.4587C36.5221 45.426 40.23 45.448 40.23 45.448C40.23 45.448 42.1707 45.8297 42.1436 47.7232C42.1165 49.6168 40.211 49.9985 40.211 49.9985C40.211 49.9985 35.195 50.0001 32.6871 50.0001C30.1791 50.0001 25.1631 49.9983 25.1631 49.9983Z" fill="#00607C"/>
<path fill-rule="evenodd" clip-rule="evenodd" d="M56.8437 15.7996C55.7858 15.7996 54.728 15.7988 53.6702 15.798H53.6698C50.392 15.7955 47.1144 15.7931 43.8369 15.8142C43.2034 15.8183 43.0293 15.6424 42.9812 15.0039C42.623 10.2517 42.2259 5.50226 41.8144 0.754474C41.7668 0.205293 41.8301 -0.00500693 42.454 9.02619e-05C46.0804 0.0300157 49.7073 0.0254118 53.3338 0.00699613C54.1926 0.00272107 54.698 0.352618 54.9693 1.17771C55.9961 4.30123 57.0331 7.42138 58.0701 10.5415L58.0736 10.5522C58.5875 12.0984 59.1014 13.6446 59.614 15.1912C59.6525 15.307 59.6754 15.428 59.7019 15.5681C59.7154 15.6397 59.7299 15.7162 59.7479 15.7996H56.8437ZM6.27519 15.8107C5.69598 15.8167 5.59617 15.6925 5.78532 15.1307C7.34639 10.4921 8.88767 5.84673 10.4129 1.19612C10.6824 0.374814 11.1703 0.00321252 12.0342 0.00732315C15.6608 0.0247523 19.2875 0.0278763 22.9139 0.00140384C23.5008 -0.00287122 23.6293 0.145934 23.5782 0.733426C23.1585 5.56309 22.7634 10.3951 22.3938 15.2287C22.3501 15.8007 22.0741 15.806 21.6542 15.8043C19.7374 15.7968 17.8205 15.7978 15.9036 15.7988H15.9029C15.2569 15.7991 14.6108 15.7994 13.9647 15.7994C13.2842 15.7994 12.6037 15.7984 11.9231 15.7973C10.0404 15.7944 8.15766 15.7915 6.27519 15.8107ZM25.0007 15.0766C24.9511 15.6519 25.1015 15.8216 25.688 15.8132C27.3991 15.7891 29.1105 15.7929 30.8219 15.7967C31.455 15.7981 32.0881 15.7995 32.7211 15.7995C33.3567 15.7995 33.9924 15.7976 34.628 15.7956C36.3097 15.7905 37.9914 15.7853 39.6724 15.8163C40.3223 15.8281 40.4391 15.6213 40.3876 15.0241C39.9751 10.25 39.5857 5.47395 39.201 0.697386C39.1621 0.215127 39.0343 -0.0040526 38.4756 5.80334e-05C34.632 0.0281748 30.788 0.0247219 26.9443 0.00301769C26.4294 5.80336e-05 26.2313 0.145739 26.1897 0.667625C25.8076 5.47181 25.4137 10.275 25.0007 15.0766Z" fill="#F99B0C"/>
</svg>
