<svg width="30" height="30" viewBox="0 0 30 30" fill="none" xmlns="http://www.w3.org/2000/svg">
<path fill-rule="evenodd" clip-rule="evenodd" d="M15 30C23.2843 30 30 23.2843 30 15C30 6.71573 23.2843 0 15 0C6.71573 0 0 6.71573 0 15C0 23.2843 6.71573 30 15 30ZM21.5 17.4137C21.0516 21.3048 18.8991 23.5765 14.7511 23.5765C10.6928 23.5765 8.38341 21.0574 7.89013 17.5037H6.5V15.9068H7.80045V14.7372H6.5V13.1403H7.91256C8.47309 9.51909 11.0516 7 14.8857 7C18.7422 7 21.0516 8.97928 21.3879 12.8029H17.1502C16.9484 11.2735 16.1861 10.4637 14.8408 10.4637C13.3834 10.4637 12.6211 11.4984 12.352 13.1403H15.8274L15.5583 14.7372H12.2623V15.9068H15.3565L15.0874 17.5037H12.352C12.5987 19.1006 13.361 20.0228 14.8632 20.0228C16.3655 20.0228 17.083 19.1456 17.2848 17.4137H21.5Z" fill="#00607C"/>
</svg>
