<svg width="30" height="28" viewBox="0 0 30 28" fill="none" xmlns="http://www.w3.org/2000/svg">
<path fill-rule="evenodd" clip-rule="evenodd" d="M10.52 0.18225L8.26877 1.58032C7.71618 1.92349 7.54889 2.6481 7.89512 3.19878L9.30564 5.44222C9.86415 6.33052 11.2216 6.10609 11.4569 5.08653L11.53 4.77024C13.5364 6.09594 14.5847 8.55916 14.0234 10.9907C13.5591 13.0016 12.0864 14.5886 10.1564 15.234C9.53871 15.4406 9.2075 16.1067 9.41659 16.7218C9.62567 17.3369 10.2959 17.668 10.9135 17.4615C13.6121 16.559 15.6753 14.3357 16.3249 11.522C17.178 7.82679 15.3768 4.08083 12.0833 2.37329L12.2976 1.44501C12.533 0.42545 11.4114 -0.371319 10.52 0.18225ZM5.38212 1.95772C5.99298 1.73216 6.67315 2.04249 6.90132 2.65087C7.12949 3.25926 6.81926 3.9353 6.2084 4.16087C4.35982 4.84347 2.96409 6.39555 2.5144 8.34335C1.95735 10.7562 2.98252 13.167 4.91293 14.4988L4.97632 14.2242C5.2117 13.2047 6.56913 12.9802 7.12762 13.8686L8.53808 16.112C8.88429 16.6627 8.71701 17.3873 8.16444 17.7304L5.91326 19.1285C5.02188 19.6821 3.90022 18.8853 4.1356 17.8658L4.35646 16.9091C1.15418 15.1924 -0.639482 11.504 0.212879 7.812C0.842039 5.08681 2.79775 2.91202 5.38212 1.95772ZM17.976 15.3949C18.8655 13.765 19.3706 11.8975 19.3706 9.91265C19.3706 7.27115 18.4759 4.83747 16.9714 2.895C17.5519 2.72615 18.168 2.63415 18.8082 2.63049C22.3197 2.61046 25.4427 5.73506 25.3595 9.1852C25.2744 12.7187 22.4322 15.4432 18.8304 15.4437C18.5393 15.4437 18.2542 15.4272 17.976 15.3949ZM8.24556 21.4144C11.6153 21.2866 14.6159 19.7261 16.6491 17.3279C16.8047 17.3308 16.9618 17.3361 17.1206 17.3437C18.8155 17.4264 19.3512 17.4115 20.0157 17.3931C20.5481 17.3783 21.1631 17.3612 22.5233 17.3902C26.4317 17.4741 29.1634 19.8493 29.8487 23.6357C30.3024 26.132 29.7636 27.3569 27.8401 27.7248C27.221 27.953 26.5357 28.0043 25.8174 27.9996C22.9849 27.9911 20.941 27.9923 18.9663 27.9935H18.9654H18.9653H18.9653H18.9652H18.9651C16.614 27.9949 14.3606 27.9962 10.9908 27.981C7.84795 27.967 6.92163 26.8167 7.47459 23.7615C7.62967 22.9031 7.89004 22.1173 8.24556 21.4144Z" fill="#00607C"/>
</svg>
