<svg width="72" height="72" viewBox="0 0 72 72" fill="none" xmlns="http://www.w3.org/2000/svg">
<circle cx="36" cy="36" r="35" fill="white" stroke="url(#paint0_linear_8_26)" stroke-width="2"/>
<path fill-rule="evenodd" clip-rule="evenodd" d="M36.0011 28.0009L34.4721 28.0008C32.6765 28.0005 30.881 28.0002 29.0854 28.0036L29.0739 28.0036C28.8475 28.0041 28.6886 28.0045 28.7547 27.6811C29.3183 24.9245 30.0911 22.2411 31.4835 19.7718C32.101 18.6769 32.8211 17.6601 33.8181 16.8704C35.2797 15.7128 36.7265 15.7068 38.1802 16.8706C39.5605 17.9756 40.426 19.4606 41.1646 21.0273C42.1584 23.135 42.7717 25.364 43.2386 27.6389C43.3016 27.9456 43.2106 28.0082 42.9168 28.0069C41.1545 27.9987 39.3922 27.9996 37.63 28.0004C37.087 28.0007 36.5441 28.0009 36.0011 28.0009ZM35.9823 41.3356C35.4103 41.3356 34.8383 41.3352 34.2663 41.3349C32.409 41.3337 30.5516 41.3325 28.6943 41.3436C28.388 41.3454 28.2928 41.2528 28.2623 40.9603C27.917 37.649 27.9171 34.3391 28.264 31.0278C28.2926 30.7555 28.3783 30.6605 28.668 30.6611C33.5544 30.6706 38.4409 30.6703 43.3274 30.6618C43.6078 30.6613 43.7072 30.7412 43.7366 31.0222C44.0829 34.3335 44.0843 37.6434 43.7382 40.9547C43.7086 41.2386 43.6264 41.3461 43.312 41.3441C41.4449 41.3323 39.5777 41.3335 37.7105 41.3348C37.1344 41.3352 36.5584 41.3356 35.9823 41.3356ZM37.4733 44.0026L36.0258 44.0025L34.5536 44.0026C32.7254 44.0028 30.8971 44.0029 29.0689 44.0009L29.0335 44.0008C28.8421 43.9995 28.6915 43.9986 28.752 44.2974C29.3244 47.1242 30.1208 49.8722 31.575 52.3898C32.1826 53.4417 32.8931 54.4144 33.8643 55.1683C35.2882 56.2736 36.7073 56.2758 38.1294 55.1749C39.0214 54.4844 39.6945 53.6045 40.271 52.6476C41.8249 50.0684 42.65 47.2285 43.2475 44.3065C43.3122 43.9903 43.1529 43.9951 42.9716 44.0005C42.9478 44.0012 42.9235 44.0019 42.8994 44.0019C41.0907 44.0027 39.282 44.0026 37.4733 44.0026ZM21.1707 41.3356C20.8165 41.3356 20.4623 41.3351 20.1082 41.3346C19.1019 41.3332 18.0956 41.3317 17.0895 41.3417C16.8163 41.3445 16.7169 41.2586 16.6477 40.9916C15.7868 37.6705 15.7828 34.3541 16.6433 31.0322C16.7154 30.754 16.8138 30.659 17.1103 30.6604C19.8171 30.6732 22.5241 30.673 25.2311 30.6609C25.5396 30.6595 25.63 30.7183 25.5964 31.0465C25.3363 33.5772 25.2499 36.1136 25.4133 38.6549C25.464 39.444 25.52 40.2333 25.6004 41.0198C25.6282 41.2926 25.5456 41.343 25.2935 41.3409C24.2716 41.3325 23.2495 41.3337 22.2275 41.3348C21.8752 41.3352 21.5229 41.3356 21.1707 41.3356ZM49.7424 41.3343C50.1029 41.3349 50.4633 41.3356 50.8237 41.3356C51.1769 41.3356 51.5301 41.3351 51.8833 41.3347C52.8905 41.3334 53.8978 41.3321 54.9049 41.3413C55.1721 41.3438 55.2813 41.2712 55.3521 40.998C56.2119 37.6768 56.2172 34.3607 55.3605 31.0377C55.2804 30.7272 55.148 30.6607 54.855 30.6619C52.1758 30.6721 49.4966 30.6738 46.8175 30.6605C46.484 30.6588 46.362 30.7076 46.4055 31.082C46.5562 32.378 46.6259 33.6814 46.6579 34.9859C46.7069 36.9867 46.6076 38.9822 46.4047 40.9721C46.3748 41.2662 46.4415 41.3464 46.7426 41.3427C47.7424 41.3307 48.7424 41.3325 49.7424 41.3343ZM41.8141 16.8496C47.6338 18.7904 51.7439 22.4695 54.2963 27.9062C54.2001 28.0186 54.1051 28.01 54.0194 28.0022C53.9982 28.0003 53.9776 27.9984 53.9577 27.9984C53.1502 27.9995 52.3427 27.9994 51.5352 27.9993H51.5348C49.8159 27.9991 48.0971 27.9989 46.3784 28.0096C46.0504 28.0117 45.9668 27.8942 45.9133 27.6C45.3419 24.4602 44.4548 21.4234 42.8968 18.6153C42.6847 18.2332 42.4509 17.8631 42.1977 17.4622L42.1977 17.4621L42.1976 17.462C42.0743 17.2668 41.9464 17.0643 41.8141 16.8496ZM30.1392 16.9536C24.3706 18.7924 20.2564 22.4674 17.6799 27.9577C17.7201 27.9681 17.7486 27.9765 17.7699 27.9828L17.77 27.9828L17.77 27.9828C17.8024 27.9923 17.8185 27.9971 17.8345 27.9971C18.5297 27.9976 19.2249 27.9977 19.9201 27.9978C21.8625 27.9981 23.8049 27.9984 25.7473 28.0073C26.0078 28.0085 26.0336 27.8666 26.0628 27.7063C26.0668 27.6845 26.0708 27.6624 26.0755 27.6402C26.1275 27.3944 26.1774 27.148 26.2272 26.9017C26.3396 26.3463 26.452 25.791 26.5891 25.2419C27.2781 22.4834 28.2346 19.833 29.8192 17.4441C29.8915 17.335 29.9627 17.2253 30.0339 17.1155C30.069 17.0615 30.104 17.0075 30.1392 16.9536ZM17.746 44.0414C17.8303 43.9857 17.9228 43.9928 18.0139 43.9998C18.0444 44.0022 18.0746 44.0045 18.1044 44.0045C18.8779 44.0037 19.6514 44.0039 20.425 44.004H20.4259C22.1508 44.0044 23.8756 44.0048 25.6005 43.9941C25.9396 43.992 26.033 44.1089 26.0908 44.4226C26.7076 47.7688 27.6672 50.9977 29.4252 53.9451C29.5217 54.1068 29.6248 54.2644 29.7278 54.422L29.7279 54.4221L29.783 54.5065C29.8636 54.6301 29.9458 54.7527 30.032 54.8813L30.0321 54.8814L30.0331 54.8829C30.0733 54.9429 30.1144 55.0042 30.1566 55.0675C25.8752 54.4743 18.8753 48.2422 17.746 44.0414ZM42.0888 54.7056C42.0102 54.825 41.9308 54.9457 41.8513 55.0688C46.0913 54.5044 53.1798 48.1872 54.2572 44.0257C54.24 44.0232 54.2231 44.0201 54.2063 44.017C54.1708 44.0104 54.1359 44.0039 54.101 44.0039C53.402 44.0036 52.7031 44.0036 52.0041 44.0037C50.0934 44.0037 48.1827 44.0038 46.272 43.9965C46.0281 43.9955 45.965 44.1032 45.932 44.3032C45.878 44.6314 45.8172 44.9587 45.749 45.2842C45.1117 48.3264 44.1822 51.2622 42.5726 53.9475C42.4197 54.2026 42.2561 54.4513 42.0888 54.7056Z" fill="#00607C"/>
<defs>
<linearGradient id="paint0_linear_8_26" x1="10.313" y1="1" x2="10.313" y2="52.3741" gradientUnits="userSpaceOnUse">
<stop stop-color="#F99B0C"/>
<stop offset="0.630776" stop-color="white"/>
</linearGradient>
</defs>
</svg>
