<svg width="72" height="72" viewBox="0 0 72 72" fill="none" xmlns="http://www.w3.org/2000/svg">
<circle cx="36" cy="36" r="35" fill="white" stroke="url(#paint0_linear_8_25)" stroke-width="2"/>
<path fill-rule="evenodd" clip-rule="evenodd" d="M39.122 40.1653C45.8572 40.1653 51.3171 34.7557 51.3171 28.0827C51.3171 21.4096 45.8572 16 39.122 16C32.3868 16 26.9269 21.4096 26.9269 28.0827C26.9269 34.7557 32.3868 40.1653 39.122 40.1653ZM44.3391 23.0351C44.265 23.4034 44.1479 23.7238 43.912 23.9975C43.0053 25.0499 42.133 26.13 41.2608 27.2101L41.2607 27.2102C40.5794 28.0538 39.8981 28.8975 39.2005 29.7278C38.7045 30.318 38.2223 30.9188 37.74 31.5196L37.74 31.5197C37.1974 32.1957 36.6548 32.8717 36.093 33.5323C35.9257 33.729 35.7281 33.8588 35.5057 33.9849C35.0795 34.2267 34.8042 33.9553 34.6002 33.6984C34.5845 33.6786 34.5684 33.6587 34.552 33.6385L34.552 33.6385C34.3542 33.3942 34.1285 33.1155 34.378 32.7309C34.7274 32.1923 35.1396 31.7036 35.5517 31.215L35.5517 31.215C35.7389 30.9931 35.9261 30.7711 36.1074 30.5445C36.823 29.6502 37.5499 28.7647 38.2768 27.8792L38.277 27.879C38.662 27.41 39.047 26.9411 39.4303 26.4708C39.9175 25.873 40.4036 25.2742 40.8897 24.6755L40.8898 24.6754C41.462 23.9705 42.0343 23.2656 42.6085 22.5622C42.8829 22.2261 43.483 22.0912 43.8804 22.2573C44.1473 22.3688 44.2085 22.5937 44.2677 22.8115L44.2677 22.8115C44.2887 22.8887 44.3095 22.965 44.3391 23.0351ZM35.8149 27.6511C34.1132 27.6952 33.1386 26.3689 33.1716 25.1556C33.2078 23.8231 34.1674 22.6914 35.8041 22.6864C37.0518 22.6825 38.3996 23.8092 38.3595 25.29C38.3315 26.3278 37.2454 27.7977 35.8149 27.6511ZM35.8575 25.8623C36.325 25.8608 36.6925 25.574 36.7007 25.2115C36.7067 24.9496 36.2321 24.4411 35.856 24.4794C35.4516 24.5208 35.015 24.8618 35.0161 25.2141C35.0172 25.5793 35.3865 25.8637 35.8575 25.8623ZM42.6023 33.4377C41.1372 33.4765 39.9468 32.2673 39.9451 30.9233C39.9435 29.7533 40.9454 28.4307 42.624 28.4631C44.3441 28.4964 45.2736 29.7281 45.2683 30.9279C45.2623 32.2748 44.1728 33.4194 42.6023 33.4377ZM42.5704 30.2682C42.1063 30.2726 41.7346 30.5708 41.7431 30.932C41.751 31.268 42.2059 31.6454 42.5987 31.6418C43.0039 31.6381 43.4384 31.2482 43.422 30.9029C43.4042 30.5276 43.0501 30.2637 42.5704 30.2682Z" fill="#F99B0C"/>
<path fill-rule="evenodd" clip-rule="evenodd" d="M22.3884 52.6641C22.3906 53.7761 22.3929 54.8881 22.3938 56H43.8099C43.8294 55.9928 43.8487 55.9844 43.868 55.976C43.9095 55.9579 43.951 55.9399 43.9942 55.9333C45.1761 55.7562 46.1718 55.2253 47.0129 54.3914C48.3198 53.0955 49.6274 51.8002 50.9349 50.5049C52.4639 48.9903 53.9929 47.4757 55.5209 45.9601C56.1779 45.3084 56.1568 44.6207 55.4726 43.989C53.2434 41.9311 49.7156 41.9552 47.5227 44.0753C45.833 45.7089 44.1707 47.3707 42.5118 49.0353C41.7715 49.7782 40.9075 50.1361 39.8491 50.1238C38.4503 50.1076 37.0512 50.1108 35.6521 50.1139C35.0255 50.1154 34.3988 50.1168 33.7721 50.1165C33.6856 50.1164 33.5991 50.1173 33.5124 50.1182C33.2498 50.1209 32.9869 50.1236 32.7265 50.1003C32.2095 50.0542 31.852 49.7632 31.6957 49.2778C31.5446 48.8082 31.6664 48.3876 32.0351 48.0444C32.3198 47.7794 32.668 47.7226 33.0403 47.7229C35.3343 47.725 37.6283 47.7258 39.9223 47.7215L39.9249 47.7215C40.2046 47.7211 40.4908 47.7206 40.7628 47.6656C42.2913 47.3567 43.212 46.1518 43.2469 44.4406C43.2654 43.5331 42.8015 43.0491 41.8895 43.0443C40.6956 43.038 39.5016 43.0383 38.3076 43.0442C37.5897 43.0477 36.8948 42.9354 36.2149 42.7066C35.3371 42.4111 34.4939 42.0309 33.6761 41.6088C30.9659 40.21 28.156 40.0302 25.2469 40.8442C23.6293 41.2967 22.4012 42.7506 22.3924 44.3572C22.3772 47.126 22.3828 49.8951 22.3884 52.6641ZM16.0001 54.4541C15.9932 55.1916 16.2261 55.7097 16.919 56H19.9784C19.9775 55.9743 19.9763 55.9486 19.975 55.9229C19.9725 55.869 19.97 55.8152 19.97 55.7613C19.9699 55.0465 19.9697 54.3316 19.9695 53.6167C19.9686 50.6274 19.9677 47.638 19.9765 44.6487C19.9774 44.3272 19.9055 44.2079 19.56 44.2211C19.0914 44.2389 18.6219 44.2355 18.1524 44.232C17.9249 44.2304 17.6973 44.2287 17.4698 44.2295C16.4453 44.2328 16.0121 44.6668 16.0117 45.6916C16.0115 46.5239 16.0127 47.3563 16.0138 48.1886C16.0168 50.2772 16.0197 52.3658 16.0001 54.4541Z" fill="#00607C"/>
<defs>
<linearGradient id="paint0_linear_8_25" x1="10.313" y1="1" x2="10.313" y2="52.3741" gradientUnits="userSpaceOnUse">
<stop stop-color="#F99B0C"/>
<stop offset="0.630776" stop-color="white"/>
</linearGradient>
</defs>
</svg>
